<svg width="24" height="24" viewBox="0 0 24 24" fill="none" xmlns="http://www.w3.org/2000/svg">
<g clip-path="url(#clip0_1_698)">
<path d="M24 15.0001V24.0001H12V15.0001H15V12.0001H21V15.0001H24ZM16.5 15.0001H19.5V13.5001H16.5V15.0001ZM22.5 19.5001H21V21.0001H19.5V19.5001H16.5V21.0001H15V19.5001H13.5V22.5001H22.5V19.5001ZM22.5 16.5001H13.5V18.0001H22.5V16.5001ZM18.3398 10.5001C17.918 10.0236 17.418 9.65637 16.8398 9.39856C16.2617 9.14075 15.6484 9.00794 15 9.00012C14.375 9.00012 13.793 9.11731 13.2539 9.35169C12.7148 9.58606 12.2383 9.90637 11.8242 10.3126C11.4102 10.7189 11.0859 11.1993 10.8516 11.754C10.6172 12.3087 10.5 12.8907 10.5 13.5001C10.5 14.2189 10.3398 14.8947 10.0195 15.5275C9.69922 16.1603 9.24609 16.6915 8.66016 17.1212C9.01172 17.3009 9.33984 17.5079 9.64453 17.7423C9.94922 17.9767 10.2344 18.2423 10.5 18.5392V22.5001C10.5 21.8829 10.3828 21.3009 10.1484 20.754C9.91406 20.2072 9.59375 19.7306 9.1875 19.3243C8.78125 18.9181 8.30078 18.5939 7.74609 18.3517C7.19141 18.1095 6.60938 17.9923 6 18.0001C5.375 18.0001 4.79297 18.1173 4.25391 18.3517C3.71484 18.5861 3.23828 18.9064 2.82422 19.3126C2.41016 19.7189 2.08594 20.1993 1.85156 20.754C1.61719 21.3087 1.5 21.8907 1.5 22.5001H0C0 21.9298 0.078125 21.379 0.234375 20.8478C0.390625 20.3165 0.613281 19.8126 0.902344 19.3361C1.19141 18.8595 1.54297 18.4376 1.95703 18.0704C2.37109 17.7032 2.83203 17.3868 3.33984 17.1212C2.76172 16.6993 2.3125 16.172 1.99219 15.5392C1.67188 14.9064 1.50781 14.2267 1.5 13.5001C1.5 12.8829 1.61719 12.3009 1.85156 11.754C2.08594 11.2072 2.40625 10.7306 2.8125 10.3243C3.21875 9.91809 3.69531 9.59387 4.24219 9.35169C4.78906 9.1095 5.375 8.99231 6 9.00012C6.71875 9.00012 7.39453 9.16028 8.02734 9.48059C8.66016 9.8009 9.19141 10.254 9.62109 10.84C9.91797 10.254 10.2969 9.73059 10.7578 9.26965C11.2188 8.80872 11.7461 8.4259 12.3398 8.12122C11.7617 7.69934 11.3125 7.172 10.9922 6.53919C10.6719 5.90637 10.5078 5.22669 10.5 4.50012C10.5 3.88293 10.6172 3.3009 10.8516 2.75403C11.0859 2.20715 11.4063 1.73059 11.8125 1.32434C12.2188 0.918091 12.6953 0.593872 13.2422 0.351685C13.7891 0.109497 14.375 -0.00769043 15 0.00012207C15.6172 0.00012207 16.1992 0.11731 16.7461 0.351685C17.293 0.58606 17.7695 0.906372 18.1758 1.31262C18.582 1.71887 18.9063 2.19934 19.1484 2.75403C19.3906 3.30872 19.5078 3.89075 19.5 4.50012C19.5 5.21887 19.3398 5.89465 19.0195 6.52747C18.6992 7.16028 18.2461 7.69153 17.6602 8.12122C18.1914 8.38684 18.6719 8.71887 19.1016 9.11731C19.5313 9.51575 19.8945 9.97669 20.1914 10.5001H18.3398ZM6 16.5001C6.41406 16.5001 6.80078 16.422 7.16016 16.2657C7.51953 16.1095 7.83984 15.8947 8.12109 15.6212C8.40234 15.3478 8.61719 15.0314 8.76563 14.672C8.91406 14.3126 8.99219 13.922 9 13.5001C9 13.0861 8.92188 12.6993 8.76563 12.34C8.60938 11.9806 8.39453 11.6603 8.12109 11.379C7.84766 11.0978 7.53125 10.8829 7.17188 10.7345C6.8125 10.5861 6.42188 10.5079 6 10.5001C5.58594 10.5001 5.19922 10.5782 4.83984 10.7345C4.48047 10.8907 4.16016 11.1056 3.87891 11.379C3.59766 11.6525 3.38281 11.9689 3.23438 12.3282C3.08594 12.6876 3.00781 13.0782 3 13.5001C3 13.9142 3.07813 14.3009 3.23438 14.6603C3.39063 15.0197 3.60547 15.34 3.87891 15.6212C4.15234 15.9025 4.46875 16.1173 4.82813 16.2657C5.1875 16.4142 5.57813 16.4923 6 16.5001ZM12 4.50012C12 4.91419 12.0781 5.3009 12.2344 5.66028C12.3906 6.01965 12.6055 6.33997 12.8789 6.62122C13.1523 6.90247 13.4688 7.11731 13.8281 7.26575C14.1875 7.41419 14.5781 7.49231 15 7.50012C15.4141 7.50012 15.8008 7.422 16.1602 7.26575C16.5195 7.1095 16.8398 6.89465 17.1211 6.62122C17.4023 6.34778 17.6172 6.03137 17.7656 5.672C17.9141 5.31262 17.9922 4.922 18 4.50012C18 4.08606 17.9219 3.69934 17.7656 3.33997C17.6094 2.98059 17.3945 2.66028 17.1211 2.37903C16.8477 2.09778 16.5313 1.88293 16.1719 1.7345C15.8125 1.58606 15.4219 1.50793 15 1.50012C14.5859 1.50012 14.1992 1.57825 13.8398 1.7345C13.4805 1.89075 13.1602 2.10559 12.8789 2.37903C12.5977 2.65247 12.3828 2.96887 12.2344 3.32825C12.0859 3.68762 12.0078 4.07825 12 4.50012Z" fill="#333333"/>
</g>
<defs>
<clipPath id="clip0_1_698">
<rect width="24" height="24" fill="white"/>
</clipPath>
</defs>
</svg>
