<svg width="24" height="24" viewBox="0 0 24 24" fill="none" xmlns="http://www.w3.org/2000/svg">
<path d="M15.7361 20.0648C15.4575 20.0648 15.2241 19.9703 15.0359 19.7815C14.8477 19.5927 14.7533 19.3593 14.7526 19.0812V14.1637C14.7526 13.885 14.847 13.6516 15.0359 13.4634C15.2247 13.2753 15.4581 13.1808 15.7361 13.1802H20.6537C20.9323 13.1802 21.1661 13.2746 21.3549 13.4634C21.5438 13.6523 21.6378 13.8857 21.6372 14.1637V19.0812C21.6372 19.3599 21.5428 19.5937 21.3539 19.7825C21.1651 19.9713 20.9317 20.0654 20.6537 20.0648H15.7361ZM11.8021 11.2132C11.5234 11.2132 11.29 11.1188 11.1018 10.9299C10.9137 10.7411 10.8192 10.5077 10.8186 10.2297V5.31212C10.8186 5.03346 10.913 4.80004 11.1018 4.61186C11.2907 4.42369 11.5241 4.32927 11.8021 4.32861H20.6537C20.9323 4.32861 21.1661 4.42303 21.3549 4.61186C21.5438 4.8007 21.6378 5.03412 21.6372 5.31212V10.2297C21.6372 10.5083 21.5428 10.7421 21.3539 10.9309C21.1651 11.1197 20.9317 11.2138 20.6537 11.2132H11.8021ZM2.95052 20.0648C2.67186 20.0648 2.43844 19.9703 2.25026 19.7815C2.06208 19.5927 1.96767 19.3593 1.96701 19.0812V14.1637C1.96701 13.885 2.06143 13.6516 2.25026 13.4634C2.43909 13.2753 2.67251 13.1808 2.95052 13.1802H11.8021C12.0808 13.1802 12.3145 13.2746 12.5033 13.4634C12.6922 13.6523 12.7863 13.8857 12.7856 14.1637V19.0812C12.7856 19.3599 12.6912 19.5937 12.5024 19.7825C12.3135 19.9713 12.0801 20.0654 11.8021 20.0648H2.95052ZM2.95052 11.2132C2.67186 11.2132 2.43844 11.1188 2.25026 10.9299C2.06208 10.7411 1.96767 10.5077 1.96701 10.2297V5.31212C1.96701 5.03346 2.06143 4.80004 2.25026 4.61186C2.43909 4.42369 2.67251 4.32927 2.95052 4.32861H7.86806C8.14672 4.32861 8.38047 4.42303 8.56931 4.61186C8.75814 4.8007 8.85223 5.03412 8.85157 5.31212V10.2297C8.85157 10.5083 8.75716 10.7421 8.56832 10.9309C8.37949 11.1197 8.14607 11.2138 7.86806 11.2132H2.95052ZM12.7856 9.24616H19.6702V6.29563H12.7856V9.24616ZM3.93403 18.0977H10.8186V15.1472H3.93403V18.0977ZM16.7196 18.0977H19.6702V15.1472H16.7196V18.0977ZM3.93403 9.24616H6.88455V6.29563H3.93403V9.24616Z" fill="white"/>
</svg>