<svg width="24" height="24" viewBox="0 0 24 24" fill="none" xmlns="http://www.w3.org/2000/svg">
<path d="M13.5 4.20302C13.5 3.36752 12.4905 2.94977 11.8995 3.54002L8.379 7.06127C8.23959 7.20053 8.07412 7.31095 7.89202 7.38623C7.70993 7.46151 7.51479 7.50018 7.31775 7.50002H4.5C3.70435 7.50002 2.94129 7.81609 2.37868 8.3787C1.81607 8.94131 1.5 9.70437 1.5 10.5V13.5C1.5 14.2957 1.81607 15.0587 2.37868 15.6213C2.94129 16.184 3.70435 16.5 4.5 16.5H7.31775C7.51479 16.4999 7.70993 16.5385 7.89202 16.6138C8.07412 16.6891 8.23959 16.7995 8.379 16.9388L11.8995 20.46C12.4905 21.0503 13.5 20.6325 13.5 19.797V4.20302ZM9.4395 8.12177L12 5.56127V18.4395L9.4395 15.879C9.1609 15.6003 8.83012 15.3793 8.46607 15.2285C8.10201 15.0776 7.71181 15 7.31775 15H4.5C4.10218 15 3.72064 14.842 3.43934 14.5607C3.15804 14.2794 3 13.8978 3 13.5V10.5C3 10.1022 3.15804 9.72067 3.43934 9.43936C3.72064 9.15806 4.10218 9.00002 4.5 9.00002H7.31775C7.71176 9.00014 8.10193 8.92263 8.46598 8.77194C8.83004 8.62125 9.16084 8.40032 9.4395 8.12177ZM17.118 7.07552C17.0627 6.99328 16.9916 6.92281 16.9088 6.86821C16.8261 6.8136 16.7334 6.77594 16.636 6.7574C16.5386 6.73886 16.4385 6.73981 16.3415 6.76019C16.2445 6.78057 16.1525 6.81997 16.0708 6.87613C15.9891 6.93229 15.9194 7.00409 15.8656 7.08737C15.8119 7.17065 15.7751 7.26376 15.7576 7.36132C15.74 7.45888 15.742 7.55895 15.7633 7.65575C15.7847 7.75255 15.825 7.84416 15.882 7.92527C16.8458 9.32777 17.2973 10.6823 17.2973 12C17.2973 13.3185 16.8458 14.6738 15.882 16.0755C15.825 16.1566 15.7847 16.2482 15.7633 16.345C15.742 16.4418 15.74 16.5419 15.7576 16.6395C15.7751 16.737 15.8119 16.8302 15.8656 16.9134C15.9194 16.9967 15.9891 17.0685 16.0708 17.1247C16.1525 17.1808 16.2445 17.2202 16.3415 17.2406C16.4385 17.261 16.5386 17.2619 16.636 17.2434C16.7334 17.2249 16.8261 17.1872 16.9088 17.1326C16.9916 17.078 17.0627 17.0075 17.118 16.9253C18.2168 15.3278 18.7965 13.6823 18.7965 12C18.7965 10.3185 18.2168 8.67377 17.118 7.07552ZM19.2675 3.95702C19.1234 3.81977 18.9307 3.74539 18.7317 3.75025C18.5328 3.7551 18.3439 3.83879 18.2066 3.9829C18.0694 4.12701 17.995 4.31974 17.9998 4.5187C18.0047 4.71765 18.0884 4.90652 18.2325 5.04377C20.0228 6.74852 20.9535 9.34727 20.9535 12C20.9535 14.6528 20.0228 17.2523 18.2325 18.957C18.1611 19.025 18.1039 19.1063 18.064 19.1964C18.024 19.2865 18.0023 19.3836 17.9998 19.4821C17.9974 19.5806 18.0145 19.6786 18.0499 19.7706C18.0854 19.8625 18.1387 19.9465 18.2066 20.0179C18.2746 20.0893 18.3559 20.1465 18.446 20.1864C18.5361 20.2264 18.6332 20.2481 18.7317 20.2505C18.8302 20.253 18.9282 20.2359 19.0202 20.2005C19.1121 20.165 19.1961 20.1117 19.2675 20.0438C21.4148 17.9985 22.4528 14.9723 22.4528 12C22.4528 9.02777 21.4155 6.00227 19.2675 3.95702Z" fill="#333333"/>
</svg>
